<svg width="80" height="80" viewBox="0 0 80 80" fill="none" xmlns="http://www.w3.org/2000/svg">
<path d="M40 0C62.0914 0 80 17.9086 80 40C80 62.0914 62.0914 80 40 80C17.9086 80 0 62.0914 0 40C0 17.9086 17.9086 0 40 0Z" fill="#DBEAFE"/>
<path d="M40 0C62.0914 0 80 17.9086 80 40C80 62.0914 62.0914 80 40 80C17.9086 80 0 62.0914 0 40C0 17.9086 17.9086 0 40 0Z" stroke="#E5E7EB"/>
<path d="M55 55H25V25H55V55Z" stroke="#E5E7EB"/>
<g clip-path="url(#clip0_112_617)">
<path d="M45.0742 25.5508C44.3418 24.8184 43.1523 24.8184 42.4199 25.5508C41.6875 26.2832 41.6875 27.4727 42.4199 28.2051L42.9707 28.7559L26.6465 45.0742C25.5918 46.1289 25 47.5586 25 49.0527V49.375C25 52.4805 27.5195 55 30.625 55H30.9473C32.4414 55 33.8711 54.4082 34.9258 53.3535L51.25 37.0293L51.8008 37.5801C52.5332 38.3125 53.7227 38.3125 54.4551 37.5801C55.1875 36.8477 55.1875 35.6582 54.4551 34.9258L52.5801 33.0508L46.9551 27.4258L45.0801 25.5508H45.0742ZM37.0293 40L45.625 31.4043L48.5957 34.375L42.9707 40H37.0293Z" fill="#2563EB"/>
</g>
<defs>
<clipPath id="clip0_112_617">
<path d="M25 25H55V55H25V25Z" fill="white"/>
</clipPath>
</defs>
</svg>
