<svg width="80" height="80" viewBox="0 0 80 80" fill="none" xmlns="http://www.w3.org/2000/svg">
<path d="M40 0C62.0914 0 80 17.9086 80 40C80 62.0914 62.0914 80 40 80C17.9086 80 0 62.0914 0 40C0 17.9086 17.9086 0 40 0Z" fill="#DBEAFE"/>
<path d="M40 0C62.0914 0 80 17.9086 80 40C80 62.0914 62.0914 80 40 80C17.9086 80 0 62.0914 0 40C0 17.9086 17.9086 0 40 0Z" stroke="#E5E7EB"/>
<path d="M58.75 55H21.25V25H58.75V55Z" stroke="#E5E7EB"/>
<g clip-path="url(#clip0_112_609)">
<path d="M26.875 32.5C26.875 30.5109 27.6652 28.6032 29.0717 27.1967C30.4782 25.7902 32.3859 25 34.375 25C36.3641 25 38.2718 25.7902 39.6783 27.1967C41.0848 28.6032 41.875 30.5109 41.875 32.5C41.875 34.4891 41.0848 36.3968 39.6783 37.8033C38.2718 39.2098 36.3641 40 34.375 40C32.3859 40 30.4782 39.2098 29.0717 37.8033C27.6652 36.3968 26.875 34.4891 26.875 32.5ZM21.25 53.2598C21.25 47.4883 25.9258 42.8125 31.6973 42.8125H37.0527C42.8242 42.8125 47.5 47.4883 47.5 53.2598C47.5 54.2207 46.7207 55 45.7598 55H22.9902C22.0293 55 21.25 54.2207 21.25 53.2598ZM50.7812 43.2812V39.5312H47.0312C46.252 39.5312 45.625 38.9043 45.625 38.125C45.625 37.3457 46.252 36.7188 47.0312 36.7188H50.7812V32.9688C50.7812 32.1895 51.4082 31.5625 52.1875 31.5625C52.9668 31.5625 53.5938 32.1895 53.5938 32.9688V36.7188H57.3438C58.123 36.7188 58.75 37.3457 58.75 38.125C58.75 38.9043 58.123 39.5312 57.3438 39.5312H53.5938V43.2812C53.5938 44.0605 52.9668 44.6875 52.1875 44.6875C51.4082 44.6875 50.7812 44.0605 50.7812 43.2812Z" fill="#2563EB"/>
</g>
<defs>
<clipPath id="clip0_112_609">
<path d="M21.25 25H58.75V55H21.25V25Z" fill="white"/>
</clipPath>
</defs>
</svg>
