<svg width="80" height="80" viewBox="0 0 80 80" fill="none" xmlns="http://www.w3.org/2000/svg">
<path d="M40 0C62.0914 0 80 17.9086 80 40C80 62.0914 62.0914 80 40 80C17.9086 80 0 62.0914 0 40C0 17.9086 17.9086 0 40 0Z" fill="#DBEAFE"/>
<path d="M40 0C62.0914 0 80 17.9086 80 40C80 62.0914 62.0914 80 40 80C17.9086 80 0 62.0914 0 40C0 17.9086 17.9086 0 40 0Z" stroke="#E5E7EB"/>
<path d="M55 55H25V25H55V55Z" stroke="#E5E7EB"/>
<path d="M55 55H25V25H55V55Z" stroke="#E5E7EB"/>
<path d="M28.75 28.75C28.75 27.7129 27.9121 26.875 26.875 26.875C25.8379 26.875 25 27.7129 25 28.75V48.4375C25 51.0273 27.0977 53.125 29.6875 53.125H53.125C54.1621 53.125 55 52.2871 55 51.25C55 50.2129 54.1621 49.375 53.125 49.375H29.6875C29.1719 49.375 28.75 48.9531 28.75 48.4375V28.75ZM52.5742 33.8242C53.3066 33.0918 53.3066 31.9023 52.5742 31.1699C51.8418 30.4375 50.6523 30.4375 49.9199 31.1699L43.75 37.3457L40.3867 33.9824C39.6543 33.25 38.4648 33.25 37.7324 33.9824L31.1699 40.5449C30.4375 41.2773 30.4375 42.4668 31.1699 43.1992C31.9023 43.9316 33.0918 43.9316 33.8242 43.1992L39.0625 37.9668L42.4258 41.3301C43.1582 42.0625 44.3477 42.0625 45.0801 41.3301L52.5801 33.8301L52.5742 33.8242Z" fill="#2563EB"/>
</svg>
