<svg width="36" height="36" viewBox="0 0 36 36" fill="none" xmlns="http://www.w3.org/2000/svg">
<g clip-path="url(#clip0_112_535)">
<path d="M12.9375 0C15.1102 0 16.875 1.76484 16.875 3.9375V32.0625C16.875 34.2352 15.1102 36 12.9375 36C10.9055 36 9.23203 34.4602 9.02109 32.4773C8.65547 32.5758 8.26875 32.625 7.875 32.625C5.39297 32.625 3.375 30.607 3.375 28.125C3.375 27.6047 3.46641 27.0984 3.62812 26.6344C1.50469 25.8328 0 23.7797 0 21.375C0 19.132 1.31484 17.1914 3.22031 16.2914C2.60859 15.525 2.25 14.5547 2.25 13.5C2.25 11.3414 3.76875 9.54141 5.79375 9.09844C5.68125 8.71172 5.625 8.29688 5.625 7.875C5.625 5.77266 7.07344 4.00078 9.02109 3.50859C9.23203 1.53984 10.9055 0 12.9375 0ZM23.0625 0C25.0945 0 26.7609 1.53984 26.9789 3.50859C28.9336 4.00078 30.375 5.76562 30.375 7.875C30.375 8.29688 30.3188 8.71172 30.2063 9.09844C32.2313 9.53437 33.75 11.3414 33.75 13.5C33.75 14.5547 33.3914 15.525 32.7797 16.2914C34.6852 17.1914 36 19.132 36 21.375C36 23.7797 34.4953 25.8328 32.3719 26.6344C32.5336 27.0984 32.625 27.6047 32.625 28.125C32.625 30.607 30.607 32.625 28.125 32.625C27.7313 32.625 27.3445 32.5758 26.9789 32.4773C26.768 34.4602 25.0945 36 23.0625 36C20.8898 36 19.125 34.2352 19.125 32.0625V3.9375C19.125 1.76484 20.8898 0 23.0625 0Z" fill="#2563EB"/>
</g>
<defs>
<clipPath id="clip0_112_535">
<path d="M0 0H36V36H0V0Z" fill="white"/>
</clipPath>
</defs>
</svg>
