<svg width="35" height="36" viewBox="0 0 35 36" fill="none" xmlns="http://www.w3.org/2000/svg">
<rect y="0.5" width="35" height="35" rx="17.5" fill="#2563EB"/>
<g clip-path="url(#clip0_35_1893)">
<path fill-rule="evenodd" clip-rule="evenodd" d="M23.2718 18.379L18.4503 23.2005C18.241 23.4098 17.9016 23.4098 17.6923 23.2005C17.483 22.9911 17.483 22.6518 17.6923 22.4424L21.5997 18.5357H11.107C10.8112 18.5357 10.5713 18.2959 10.5713 18C10.5713 17.7042 10.8112 17.4643 11.107 17.4643H21.5997L17.6923 13.5576C17.483 13.3483 17.483 13.0089 17.6923 12.7996C17.9016 12.5902 18.241 12.5902 18.4503 12.7996L23.2718 17.621C23.3724 17.7215 23.4289 17.8578 23.4289 18C23.4289 18.1422 23.3724 18.2786 23.2718 18.379Z" fill="#FEFEFE"/>
</g>
<defs>
<clipPath id="clip0_35_1893">
<rect width="17.1429" height="17.1429" fill="white" transform="translate(8.42847 9.42859)"/>
</clipPath>
</defs>
</svg>
