<svg width="35" height="36" viewBox="0 0 35 36" fill="none" xmlns="http://www.w3.org/2000/svg">
<rect y="0.5" width="35" height="35" rx="17.5" fill="#DBEAFE"/>
<mask id="mask0_35_1885" style="mask-type:alpha" maskUnits="userSpaceOnUse" x="8" y="9" width="18" height="18">
<rect x="8" y="9" width="18" height="18" fill="#D9D9D9"/>
</mask>
<g mask="url(#mask0_35_1885)">
<path d="M17 21C17.9375 21 18.7344 20.6719 19.3906 20.0156C20.0469 19.3594 20.375 18.5625 20.375 17.625C20.375 16.6875 20.0469 15.8906 19.3906 15.2344C18.7344 14.5781 17.9375 14.25 17 14.25C16.0625 14.25 15.2656 14.5781 14.6094 15.2344C13.9531 15.8906 13.625 16.6875 13.625 17.625C13.625 18.5625 13.9531 19.3594 14.6094 20.0156C15.2656 20.6719 16.0625 21 17 21ZM17 19.65C16.4375 19.65 15.9594 19.4531 15.5656 19.0594C15.1719 18.6656 14.975 18.1875 14.975 17.625C14.975 17.0625 15.1719 16.5844 15.5656 16.1906C15.9594 15.7969 16.4375 15.6 17 15.6C17.5625 15.6 18.0406 15.7969 18.4344 16.1906C18.8281 16.5844 19.025 17.0625 19.025 17.625C19.025 18.1875 18.8281 18.6656 18.4344 19.0594C18.0406 19.4531 17.5625 19.65 17 19.65ZM17 23.25C15.175 23.25 13.5125 22.7406 12.0125 21.7219C10.5125 20.7031 9.425 19.3375 8.75 17.625C9.425 15.9125 10.5125 14.5469 12.0125 13.5281C13.5125 12.5094 15.175 12 17 12C18.825 12 20.4875 12.5094 21.9875 13.5281C23.4875 14.5469 24.575 15.9125 25.25 17.625C24.575 19.3375 23.4875 20.7031 21.9875 21.7219C20.4875 22.7406 18.825 23.25 17 23.25ZM17 21.75C18.4125 21.75 19.7094 21.3781 20.8906 20.6344C22.0719 19.8906 22.975 18.8875 23.6 17.625C22.975 16.3625 22.0719 15.3594 20.8906 14.6156C19.7094 13.8719 18.4125 13.5 17 13.5C15.5875 13.5 14.2906 13.8719 13.1094 14.6156C11.9281 15.3594 11.025 16.3625 10.4 17.625C11.025 18.8875 11.9281 19.8906 13.1094 20.6344C14.2906 21.3781 15.5875 21.75 17 21.75Z" fill="#2563EB"/>
</g>
</svg>
