<svg width="35" height="36" viewBox="0 0 35 36" fill="none" xmlns="http://www.w3.org/2000/svg">
<rect y="0.5" width="35" height="35" rx="17.5" fill="#ECFDF5"/>
<mask id="mask0_35_1914" style="mask-type:alpha" maskUnits="userSpaceOnUse" x="8" y="9" width="18" height="18">
<rect x="8" y="9" width="18" height="18" fill="#D9D9D9"/>
</mask>
<g mask="url(#mask0_35_1914)">
<path d="M20 18.75V17.25H23V18.75H20ZM20.9 24L18.5 22.2L19.4 21L21.8 22.8L20.9 24ZM19.4 15L18.5 13.8L20.9 12L21.8 13.2L19.4 15ZM10.25 20.25V15.75H13.25L17 12V24L13.25 20.25H10.25ZM15.5 15.6375L13.8875 17.25H11.75V18.75H13.8875L15.5 20.3625V15.6375Z" fill="#059669"/>
</g>
</svg>
