<svg width="36" height="36" viewBox="0 0 36 36" fill="none" xmlns="http://www.w3.org/2000/svg">
<g clip-path="url(#clip0_112_564)">
<g clip-path="url(#clip1_112_564)">
<path d="M0 18C0 13.2261 1.89642 8.64773 5.27208 5.27208C8.64773 1.89642 13.2261 0 18 0C22.7739 0 27.3523 1.89642 30.7279 5.27208C34.1036 8.64773 36 13.2261 36 18C36 22.7739 34.1036 27.3523 30.7279 30.7279C27.3523 34.1036 22.7739 36 18 36C13.2261 36 8.64773 34.1036 5.27208 30.7279C1.89642 27.3523 0 22.7739 0 18ZM11.3555 11.9461C10.4977 11.5805 9.50625 11.9742 9.14062 12.832C8.775 13.6898 9.16875 14.6812 10.0266 15.0469L10.8633 15.4055C12.0797 15.9258 13.3383 16.3125 14.632 16.5516V20.0742C14.632 20.3766 14.5828 20.6789 14.4844 20.9602L12.4664 27.0141C12.1711 27.9 12.6492 28.8563 13.5352 29.1516C14.4211 29.4469 15.3773 28.9688 15.6727 28.0828L17.3883 22.9359C17.4797 22.6688 17.7258 22.4859 18.007 22.4859C18.2883 22.4859 18.5414 22.6688 18.6258 22.9359L20.3414 28.0828C20.6367 28.9688 21.593 29.4469 22.4789 29.1516C23.3648 28.8563 23.843 27.9 23.5477 27.0141L21.5297 20.9602C21.4313 20.6719 21.382 20.3766 21.382 20.0742V16.5586C22.6758 16.3125 23.9344 15.9328 25.1508 15.4125L25.9875 15.0539C26.8453 14.6883 27.2391 13.6969 26.8734 12.8391C26.5078 11.9813 25.5164 11.5875 24.6586 11.9531L23.8148 12.3047C21.9797 13.0922 20.0039 13.5 18 13.5C15.9961 13.5 14.0273 13.0922 12.1852 12.3047L11.3484 11.9461H11.3555ZM18 11.25C18.7459 11.25 19.4613 10.9537 19.9887 10.4262C20.5162 9.89879 20.8125 9.18342 20.8125 8.4375C20.8125 7.69158 20.5162 6.97621 19.9887 6.44876C19.4613 5.92132 18.7459 5.625 18 5.625C17.2541 5.625 16.5387 5.92132 16.0113 6.44876C15.4838 6.97621 15.1875 7.69158 15.1875 8.4375C15.1875 9.18342 15.4838 9.89879 16.0113 10.4262C16.5387 10.9537 17.2541 11.25 18 11.25Z" fill="#2563EB"/>
</g>
</g>
<defs>
<clipPath id="clip0_112_564">
<rect width="36" height="36" fill="white"/>
</clipPath>
<clipPath id="clip1_112_564">
<path d="M0 0H36V36H0V0Z" fill="white"/>
</clipPath>
</defs>
</svg>
