<svg width="35" height="36" viewBox="0 0 35 36" fill="none" xmlns="http://www.w3.org/2000/svg">
<rect y="0.5" width="35" height="35" rx="17.5" fill="#DBEAFE"/>
<mask id="mask0_35_1663" style="mask-type:alpha" maskUnits="userSpaceOnUse" x="8" y="9" width="18" height="18">
<rect x="8" y="9" width="18" height="18" fill="#D9D9D9"/>
</mask>
<g mask="url(#mask0_35_1663)">
<path d="M15.5 24H18.5V23.25H15.5V24ZM13.25 26.25C12.8375 26.25 12.4844 26.1031 12.1906 25.8094C11.8969 25.5156 11.75 25.1625 11.75 24.75V11.25C11.75 10.8375 11.8969 10.4844 12.1906 10.1906C12.4844 9.89688 12.8375 9.75 13.25 9.75H20.75C21.1625 9.75 21.5156 9.89688 21.8094 10.1906C22.1031 10.4844 22.25 10.8375 22.25 11.25V24.75C22.25 25.1625 22.1031 25.5156 21.8094 25.8094C21.5156 26.1031 21.1625 26.25 20.75 26.25H13.25ZM13.25 22.5V24.75H20.75V22.5H13.25ZM13.25 21H20.75V13.5H13.25V21ZM13.25 12H20.75V11.25H13.25V12Z" fill="#2563EB"/>
</g>
</svg>
