<svg width="38" height="30" viewBox="0 0 38 30" fill="none" xmlns="http://www.w3.org/2000/svg">
<g clip-path="url(#clip0_112_691)">
<path d="M8.4375 0C9.6807 0 10.873 0.49386 11.7521 1.37294C12.6311 2.25201 13.125 3.4443 13.125 4.6875C13.125 5.9307 12.6311 7.12299 11.7521 8.00206C10.873 8.88114 9.6807 9.375 8.4375 9.375C7.1943 9.375 6.00201 8.88114 5.12294 8.00206C4.24386 7.12299 3.75 5.9307 3.75 4.6875C3.75 3.4443 4.24386 2.25201 5.12294 1.37294C6.00201 0.49386 7.1943 0 8.4375 0ZM30 0C31.2432 0 32.4355 0.49386 33.3146 1.37294C34.1936 2.25201 34.6875 3.4443 34.6875 4.6875C34.6875 5.9307 34.1936 7.12299 33.3146 8.00206C32.4355 8.88114 31.2432 9.375 30 9.375C28.7568 9.375 27.5645 8.88114 26.6854 8.00206C25.8064 7.12299 25.3125 5.9307 25.3125 4.6875C25.3125 3.4443 25.8064 2.25201 26.6854 1.37294C27.5645 0.49386 28.7568 0 30 0ZM0 17.502C0 14.0508 2.80078 11.25 6.25195 11.25H8.75391C9.68555 11.25 10.5703 11.4551 11.3672 11.8184C11.291 12.2402 11.2559 12.6797 11.2559 13.125C11.2559 15.3633 12.2402 17.373 13.793 18.75C13.7812 18.75 13.7695 18.75 13.752 18.75H1.24805C0.5625 18.75 0 18.1875 0 17.502ZM23.748 18.75C23.7363 18.75 23.7246 18.75 23.707 18.75C25.2656 17.373 26.2441 15.3633 26.2441 13.125C26.2441 12.6797 26.2031 12.2461 26.1328 11.8184C26.9297 11.4492 27.8145 11.25 28.7461 11.25H31.248C34.6992 11.25 37.5 14.0508 37.5 17.502C37.5 18.1934 36.9375 18.75 36.252 18.75H23.748ZM13.125 13.125C13.125 11.6332 13.7176 10.2024 14.7725 9.14752C15.8274 8.09263 17.2582 7.5 18.75 7.5C20.2418 7.5 21.6726 8.09263 22.7275 9.14752C23.7824 10.2024 24.375 11.6332 24.375 13.125C24.375 14.6168 23.7824 16.0476 22.7275 17.1025C21.6726 18.1574 20.2418 18.75 18.75 18.75C17.2582 18.75 15.8274 18.1574 14.7725 17.1025C13.7176 16.0476 13.125 14.6168 13.125 13.125ZM7.5 28.4355C7.5 24.123 10.998 20.625 15.3105 20.625H22.1895C26.502 20.625 30 24.123 30 28.4355C30 29.2969 29.3027 30 28.4355 30H9.06445C8.20312 30 7.5 29.3027 7.5 28.4355Z" fill="#2563EB"/>
</g>
<defs>
<clipPath id="clip0_112_691">
<path d="M0 0H37.5V30H0V0Z" fill="white"/>
</clipPath>
</defs>
</svg>
