<svg width="19" height="30" viewBox="0 0 19 30" fill="none" xmlns="http://www.w3.org/2000/svg">
<g clip-path="url(#clip0_112_681)">
<path d="M5.62503 3.75C5.62503 2.75544 6.02012 1.80161 6.72338 1.09835C7.42664 0.395088 8.38047 0 9.37503 0C10.3696 0 11.3234 0.395088 12.0267 1.09835C12.7299 1.80161 13.125 2.75544 13.125 3.75C13.125 4.74456 12.7299 5.69839 12.0267 6.40165C11.3234 7.10491 10.3696 7.5 9.37503 7.5C8.38047 7.5 7.42664 7.10491 6.72338 6.40165C6.02012 5.69839 5.62503 4.74456 5.62503 3.75ZM8.43753 22.5V28.125C8.43753 29.1621 7.59964 30 6.56253 30C5.52542 30 4.68753 29.1621 4.68753 28.125V16.8633L3.46292 18.8086C2.91214 19.6875 1.75198 19.9453 0.878934 19.3945C0.00588702 18.8438 -0.263644 17.6895 0.287137 16.8164L2.62503 13.1074C4.08401 10.7812 6.63284 9.375 9.37503 9.375C12.1172 9.375 14.666 10.7812 16.125 13.1016L18.4629 16.8164C19.0137 17.6953 18.75 18.8496 17.877 19.4004C17.0039 19.9512 15.8438 19.6875 15.293 18.8145L14.0625 16.8633V28.125C14.0625 29.1621 13.2246 30 12.1875 30C11.1504 30 10.3125 29.1621 10.3125 28.125V22.5H8.43753Z" fill="#2563EB"/>
</g>
<defs>
<clipPath id="clip0_112_681">
<path d="M0 0H18.75V30H0V0Z" fill="white"/>
</clipPath>
</defs>
</svg>
