<svg width="30" height="30" viewBox="0 0 30 30" fill="none" xmlns="http://www.w3.org/2000/svg">
<path d="M30 30H0V0H30V30Z" stroke="#E5E7EB"/>
<path d="M30 30H0V0H30V30Z" stroke="#E5E7EB"/>
<path d="M3.75 3.75C3.75 2.71289 2.91211 1.875 1.875 1.875C0.837891 1.875 0 2.71289 0 3.75V23.4375C0 26.0273 2.09766 28.125 4.6875 28.125H28.125C29.1621 28.125 30 27.2871 30 26.25C30 25.2129 29.1621 24.375 28.125 24.375H4.6875C4.17188 24.375 3.75 23.9531 3.75 23.4375V3.75ZM27.5742 8.82422C28.3066 8.0918 28.3066 6.90234 27.5742 6.16992C26.8418 5.4375 25.6523 5.4375 24.9199 6.16992L18.75 12.3457L15.3867 8.98242C14.6543 8.25 13.4648 8.25 12.7324 8.98242L6.16992 15.5449C5.4375 16.2773 5.4375 17.4668 6.16992 18.1992C6.90234 18.9316 8.0918 18.9316 8.82422 18.1992L14.0625 12.9668L17.4258 16.3301C18.1582 17.0625 19.3477 17.0625 20.0801 16.3301L27.5801 8.83008L27.5742 8.82422Z" fill="#2563EB"/>
</svg>
