<svg width="22" height="18" viewBox="0 0 22 18" fill="none" xmlns="http://www.w3.org/2000/svg">
<path d="M10.6962 0.584595C7.69534 0.584595 5.29242 1.95133 3.54315 3.57803C1.80502 5.18988 0.64256 7.12113 0.0928966 8.44701C-0.0296635 8.74041 -0.0296635 9.06724 0.0928966 9.36064C0.64256 10.6865 1.80502 12.6178 3.54315 14.2296C5.29242 15.8563 7.69534 17.2231 10.6962 17.2231C13.6971 17.2231 16.1 15.8563 17.8493 14.2296C19.5874 12.6141 20.7498 10.6865 21.3032 9.36064C21.4258 9.06724 21.4258 8.74041 21.3032 8.44701C20.7498 7.12113 19.5874 5.18988 17.8493 3.57803C16.1 1.95133 13.6971 0.584595 10.6962 0.584595ZM5.34812 8.90383C5.34812 7.48543 5.91158 6.12512 6.91454 5.12216C7.9175 4.1192 9.2778 3.55575 10.6962 3.55575C12.1146 3.55575 13.4749 4.1192 14.4779 5.12216C15.4808 6.12512 16.0443 7.48543 16.0443 8.90383C16.0443 10.3222 15.4808 11.6825 14.4779 12.6855C13.4749 13.6884 12.1146 14.2519 10.6962 14.2519C9.2778 14.2519 7.9175 13.6884 6.91454 12.6855C5.91158 11.6825 5.34812 10.3222 5.34812 8.90383ZM10.6962 6.5269C10.6962 7.83792 9.6303 8.90383 8.31928 8.90383C8.05559 8.90383 7.80304 8.85926 7.56535 8.78127C7.36108 8.71441 7.12339 8.84069 7.13082 9.0561C7.14196 9.31236 7.1791 9.56862 7.24966 9.82488C7.75847 11.7264 9.71572 12.8555 11.6173 12.3467C13.5188 11.8378 14.6478 9.88059 14.139 7.97905C13.7268 6.43777 12.3638 5.40158 10.8485 5.33844C10.6331 5.33101 10.5068 5.56499 10.5736 5.77297C10.6516 6.01066 10.6962 6.26321 10.6962 6.5269Z" fill="#2563EB"/>
</svg>
