<svg width="46" height="48" viewBox="0 0 46 48" fill="none" xmlns="http://www.w3.org/2000/svg">
<path d="M44.2223 30.275C43.2161 29.0299 41.9402 28.0296 40.4909 27.3496C39.0416 26.6696 37.4569 26.3276 35.8562 26.3495C34.2554 26.3714 32.6806 26.7566 31.2505 27.476C29.8204 28.1953 28.5723 29.2302 27.6005 30.5023C25.2591 33.5508 23.9941 37.2894 24.0033 41.1333C24.0043 37.1037 22.6143 33.1972 20.0683 30.0738C17.5223 26.9504 13.9763 24.8014 10.0292 23.99C13.9741 23.1815 17.519 21.0362 20.065 17.9164C22.611 14.7966 24.0022 10.8935 24.0033 6.86669C23.988 10.9822 25.4332 14.9696 28.0819 18.1195C29.0375 19.2522 30.2258 20.1658 31.5659 20.7983C32.9061 21.4309 34.3667 21.7674 35.8485 21.7852C37.3303 21.803 38.7986 21.5015 40.1535 20.9013C41.5085 20.301 42.7183 19.4161 43.7008 18.3067C43.8412 18.1463 43.9816 17.9791 44.1153 17.8119C44.8098 16.9654 45.2276 15.926 45.3125 14.8344C45.3974 13.7427 45.1452 12.6512 44.59 11.7075C41.8951 7.20085 37.7963 3.70259 32.9222 1.74912C28.0482 -0.204348 22.6679 -0.505178 17.6064 0.892759C12.545 2.2907 8.08177 5.31023 4.9012 9.48833C1.72063 13.6664 -0.00170898 18.7724 -0.00170898 24.0234C-0.00170898 29.2744 1.72063 34.3804 4.9012 38.5585C8.08177 42.7366 12.545 45.7561 17.6064 47.154C22.6679 48.552 28.0482 48.2511 32.9222 46.2977C37.7963 44.3442 41.8951 40.8459 44.59 36.3393C45.147 35.433 45.4181 34.3799 45.368 33.3173C45.318 32.2547 44.949 31.2318 44.3092 30.3819L44.2223 30.275Z" fill="#F69E27"/>
</svg>
